<svg width="15" height="15" viewBox="0 0 15 15" fill="none" xmlns="http://www.w3.org/2000/svg">
<path d="M5.30471 13.2494C5.30512 13.2355 5.30576 13.2217 5.30576 13.2077C5.30576 12.4985 4.31875 11.7413 4.12088 11.5968L3.93074 11.4578L3.74061 11.5968C3.54274 11.7413 2.55573 12.4985 2.55573 13.2077C2.55573 13.2217 2.55637 13.2355 2.55678 13.2494H5.30471Z" fill="#949494"/>
<path d="M8.87398 13.2494C8.87439 13.2355 8.87504 13.2217 8.87504 13.2077C8.87504 12.4985 7.88803 11.7413 7.69016 11.5968L7.50002 11.4578L7.30988 11.5968C7.11201 11.7413 6.125 12.4985 6.125 13.2077C6.125 13.2217 6.12564 13.2355 6.12605 13.2494H8.87398Z" fill="#949494"/>
<path d="M0 14.1283H15V14.9928H0V14.1283Z" fill="#949494"/>
<path d="M12.4432 13.2494C12.4436 13.2355 12.4443 13.2217 12.4443 13.2077C12.4443 12.4985 11.4572 11.7413 11.2594 11.5968L11.0692 11.4578L10.8791 11.5968C10.6812 11.7413 9.69421 12.4985 9.69421 13.2077C9.69421 13.2217 9.69486 13.2355 9.69527 13.2494H12.4432Z" fill="#949494"/>
<path d="M13.9893 3.61391H15V5.96424H13.9893V3.61391Z" fill="#949494"/>
<path d="M13.1104 3.61391H1.88965V9.51207C1.99764 10.3448 2.71093 10.9903 3.57261 10.9903H11.4274C12.2891 10.9903 13.0023 10.3448 13.1103 9.51207V3.61391H13.1104Z" fill="#949494"/>
<path d="M0.0292969 3.61391H1.01074V5.96424H0.0292969V3.61391Z" fill="#949494"/>
<path d="M5.19403 2.01768C5.19403 1.93764 5.20443 1.91936 5.24829 1.84234C5.31573 1.72389 5.41765 1.54486 5.41765 1.23215C5.41765 0.919432 5.31573 0.740399 5.24829 0.621951C5.20446 0.544959 5.19403 0.526678 5.19403 0.446609V0.00715637H4.31512V0.446609C4.31512 0.759324 4.41705 0.938358 4.48449 1.0568C4.52832 1.1338 4.53875 1.15208 4.53875 1.23215C4.53875 1.31221 4.52835 1.33047 4.48449 1.40749C4.41705 1.52594 4.31512 1.70497 4.31512 2.01768V2.45714H5.19403V2.01768Z" fill="#949494"/>
<path d="M7.82762 2.01768C7.82762 1.93764 7.83803 1.91936 7.88188 1.84234C7.94932 1.72389 8.05124 1.54486 8.05124 1.23215C8.05124 0.919432 7.94932 0.740399 7.88188 0.621951C7.83805 0.544959 7.82762 0.526678 7.82762 0.446609V0.00715637H6.94873V0.446609C6.94873 0.759324 7.05065 0.938358 7.11809 1.0568C7.16192 1.1338 7.17235 1.15208 7.17235 1.23215C7.17235 1.31221 7.16195 1.33047 7.11809 1.40749C7.05065 1.52594 6.94873 1.70497 6.94873 2.01768V2.45714H7.82762V2.01768Z" fill="#949494"/>
<path d="M10.4612 2.01768C10.4612 1.93764 10.4716 1.91936 10.5154 1.84234C10.5829 1.72389 10.6848 1.54486 10.6848 1.23215C10.6848 0.919432 10.5829 0.740399 10.5154 0.621951C10.4716 0.544959 10.4612 0.526678 10.4612 0.446609V0.00715637H9.58228V0.446609C9.58228 0.759324 9.6842 0.938358 9.75164 1.0568C9.79547 1.1338 9.8059 1.15208 9.8059 1.23215C9.8059 1.31221 9.7955 1.33047 9.75164 1.40749C9.6842 1.52594 9.58228 1.70497 9.58228 2.01768V2.45714H10.4612V2.01768Z" fill="#949494"/>
</svg>
