<svg width="16" height="15" viewBox="0 0 16 15" fill="none" xmlns="http://www.w3.org/2000/svg">
<path d="M6.35938 5.15625C6.94132 5.15446 7.5063 5.35217 7.96016 5.71641C8.29939 5.14115 8.81842 4.69345 9.43723 4.44233C10.056 4.1912 10.7403 4.15059 11.3845 4.32676C12.0286 4.50293 12.597 4.88609 13.0019 5.41718C13.4068 5.94827 13.6257 6.5978 13.625 7.26562C13.625 7.34297 13.6203 7.42266 13.6156 7.5H14.0938V3.75H1.90625V7.5H3.79297C3.85199 6.85988 4.1478 6.26483 4.62248 5.83133C5.09716 5.39783 5.71654 5.1571 6.35938 5.15625ZM3.54688 5.85938H3.07812V5.39062H2.60938V4.92188H3.07812V4.45312H3.54688V4.92188H4.01562V5.39062H3.54688V5.85938Z" fill="#949494"/>
<path d="M3.54688 2.34375C3.67632 2.34375 3.78125 2.23882 3.78125 2.10938C3.78125 1.97993 3.67632 1.875 3.54688 1.875C3.41743 1.875 3.3125 1.97993 3.3125 2.10938C3.3125 2.23882 3.41743 2.34375 3.54688 2.34375Z" fill="#949494"/>
<path d="M10.5781 4.6875C9.8945 4.68793 9.23899 4.9597 8.7556 5.4431C8.2722 5.92649 8.00043 6.582 8 7.26562C8 7.34297 8.00469 7.42031 8.01172 7.5H13.1445C13.1516 7.42031 13.1562 7.34297 13.1562 7.26562C13.1558 6.582 12.8841 5.92649 12.4007 5.4431C11.9173 4.9597 11.2618 4.68793 10.5781 4.6875ZM12.2188 7.26562C12.2183 6.83066 12.0452 6.41365 11.7377 6.10608C11.4301 5.79851 11.0131 5.6255 10.5781 5.625V5.15625C11.1374 5.15693 11.6735 5.37939 12.0689 5.77483C12.4644 6.17026 12.6868 6.70639 12.6875 7.26562H12.2188Z" fill="#949494"/>
<path d="M6.35935 5.62499C5.8409 5.62606 5.34093 5.81769 4.95458 6.16342C4.56823 6.50915 4.32246 6.98484 4.26404 7.49999H7.5406C7.53591 7.42265 7.53123 7.34296 7.53123 7.26562C7.53142 6.88265 7.6046 6.50322 7.74685 6.14765C7.36396 5.80939 6.87025 5.62342 6.35935 5.62499Z" fill="#949494"/>
<path d="M3.07812 4.92188H3.54688V5.39062H3.07812V4.92188Z" fill="#949494"/>
<path d="M14.1148 12.6562L14.5602 7.97344C14.5625 7.97109 14.5625 7.97109 14.5625 7.96875H1.4375L1.88516 12.6562H14.1148ZM6.82812 8.67188C6.82812 8.60971 6.85282 8.5501 6.89677 8.50615C6.94073 8.46219 7.00034 8.4375 7.0625 8.4375C7.12466 8.4375 7.18427 8.46219 7.22823 8.50615C7.27218 8.5501 7.29688 8.60971 7.29688 8.67188V8.90625H8.70312V8.67188C8.70312 8.60971 8.72782 8.5501 8.77177 8.50615C8.81573 8.46219 8.87534 8.4375 8.9375 8.4375C8.99966 8.4375 9.05927 8.46219 9.10323 8.50615C9.14718 8.5501 9.17188 8.60971 9.17188 8.67188V8.90625C9.17188 9.03057 9.12249 9.1498 9.03458 9.23771C8.94667 9.32561 8.82745 9.375 8.70312 9.375H7.29688C7.17255 9.375 7.05333 9.32561 6.96542 9.23771C6.87751 9.1498 6.82812 9.03057 6.82812 8.90625V8.67188Z" fill="#949494"/>
<path d="M14.0938 1.64062C14.0932 1.45432 14.0189 1.2758 13.8872 1.14406C13.7555 1.01231 13.5769 0.938056 13.3906 0.9375H2.60938C2.42307 0.938056 2.24455 1.01231 2.11281 1.14406C1.98106 1.2758 1.90681 1.45432 1.90625 1.64062V3.28125H14.0938V1.64062ZM3.54688 2.8125C3.40781 2.8125 3.27187 2.77126 3.15624 2.694C3.04061 2.61674 2.95049 2.50693 2.89727 2.37845C2.84405 2.24997 2.83013 2.1086 2.85726 1.9722C2.88439 1.83581 2.95136 1.71052 3.04969 1.61219C3.14802 1.51386 3.27331 1.44689 3.4097 1.41976C3.5461 1.39263 3.68747 1.40655 3.81595 1.45977C3.94443 1.51299 4.05424 1.60311 4.1315 1.71874C4.20876 1.83437 4.25 1.97031 4.25 2.10938C4.25 2.29586 4.17592 2.4747 4.04406 2.60656C3.9122 2.73842 3.73336 2.8125 3.54688 2.8125ZM5.1875 2.8125C5.09479 2.8125 5.00416 2.78501 4.92708 2.7335C4.84999 2.68199 4.78991 2.60879 4.75443 2.52313C4.71895 2.43748 4.70967 2.34323 4.72776 2.2523C4.74584 2.16137 4.79049 2.07785 4.85604 2.01229C4.9216 1.94674 5.00512 1.90209 5.09605 1.88401C5.18698 1.86592 5.28123 1.8752 5.36688 1.91068C5.45254 1.94616 5.52574 2.00624 5.57725 2.08333C5.62876 2.16041 5.65625 2.25104 5.65625 2.34375C5.65625 2.46807 5.60686 2.5873 5.51896 2.67521C5.43105 2.76311 5.31182 2.8125 5.1875 2.8125ZM10.1094 2.8125H9.64062C9.57846 2.8125 9.51885 2.78781 9.4749 2.74385C9.43094 2.6999 9.40625 2.64029 9.40625 2.57812C9.40625 2.51596 9.43094 2.45635 9.4749 2.4124C9.51885 2.36844 9.57846 2.34375 9.64062 2.34375H10.1094C10.1715 2.34375 10.2311 2.36844 10.2751 2.4124C10.3191 2.45635 10.3438 2.51596 10.3438 2.57812C10.3438 2.64029 10.3191 2.6999 10.2751 2.74385C10.2311 2.78781 10.1715 2.8125 10.1094 2.8125ZM11.75 2.8125H11.2812C11.2191 2.8125 11.1595 2.78781 11.1155 2.74385C11.0716 2.6999 11.0469 2.64029 11.0469 2.57812C11.0469 2.51596 11.0716 2.45635 11.1155 2.4124C11.1595 2.36844 11.2191 2.34375 11.2812 2.34375H11.75C11.8122 2.34375 11.8718 2.36844 11.9157 2.4124C11.9597 2.45635 11.9844 2.51596 11.9844 2.57812C11.9844 2.64029 11.9597 2.6999 11.9157 2.74385C11.8718 2.78781 11.8122 2.8125 11.75 2.8125ZM13.3906 2.8125H12.9219C12.8597 2.8125 12.8001 2.78781 12.7561 2.74385C12.7122 2.6999 12.6875 2.64029 12.6875 2.57812C12.6875 2.51596 12.7122 2.45635 12.7561 2.4124C12.8001 2.36844 12.8597 2.34375 12.9219 2.34375H13.3906C13.4528 2.34375 13.5124 2.36844 13.5564 2.4124C13.6003 2.45635 13.625 2.51596 13.625 2.57812C13.625 2.64029 13.6003 2.6999 13.5564 2.74385C13.5124 2.78781 13.4528 2.8125 13.3906 2.8125Z" fill="#949494"/>
<path d="M14.0938 13.8281C14.0938 13.8903 14.0691 13.9499 14.0251 13.9939C13.9811 14.0378 13.9215 14.0625 13.8594 14.0625H2.14062C2.07846 14.0625 2.01885 14.0378 1.9749 13.9939C1.93094 13.9499 1.90625 13.8903 1.90625 13.8281V13.5938H1.4375V13.8281C1.4375 14.0146 1.51158 14.1934 1.64344 14.3253C1.7753 14.4572 1.95414 14.5312 2.14062 14.5312H13.8594C14.0459 14.5312 14.2247 14.4572 14.3566 14.3253C14.4884 14.1934 14.5625 14.0146 14.5625 13.8281V13.5938H14.0938V13.8281Z" fill="#949494"/>
</svg>
